<svg version="1.1" id="Layer_1" xmlns="http://www.w3.org/2000/svg" xmlns:xlink="http://www.w3.org/1999/xlink" x="0px" y="0px" width="100%" viewBox="0 0 1920 1080" enable-background="new 0 0 1920 1080" xml:space="preserve">

<path fill="#122439" opacity="1.000000" stroke="none" d="
M548.117615,575.361938 
	C548.117615,575.361938 548.180603,575.720703 547.846375,575.998047 
	C547.378967,576.584778 547.245789,576.894104 547.112610,577.203491 
	C547.112610,577.203491 547.093079,577.100769 546.759277,577.108398 
	C545.645203,578.501770 544.864929,579.887634 544.084717,581.273438 
	C544.084717,581.273438 544.115540,581.670166 543.659180,581.872192 
	C542.054871,582.989319 540.669312,583.720459 539.795959,584.848267 
	C531.196899,595.951721 522.755188,607.177429 514.119263,618.251831 
	C508.425385,625.553528 502.396973,632.594910 496.733124,639.918945 
	C495.590027,641.397034 495.412567,643.621765 494.789917,645.502319 
	C494.789917,645.502319 494.655792,645.600769 494.275818,645.539673 
	C492.443542,646.965210 490.837891,648.331421 489.562439,649.956726 
	C474.711517,668.881104 459.880341,687.821289 445.156158,706.844177 
	C444.041595,708.284119 443.781433,710.385498 443.124084,712.179382 
	C443.124084,712.179382 443.085144,712.080811 442.774414,712.086121 
	C440.737793,713.557434 438.726562,714.795837 437.340729,716.533142 
	C433.545837,721.290466 430.080933,726.309204 426.365509,731.132141 
	C416.101501,744.455627 405.753204,757.714294 395.532593,771.070801 
	C394.916779,771.875610 395.125763,773.311584 394.950928,774.453857 
	C394.950928,774.453857 394.804321,774.753784 394.363220,774.663269 
	C388.629242,781.275757 383.326691,787.971130 378.075684,794.706848 
	C377.844330,795.003540 378.083954,795.667358 378.104187,796.160217 
	C378.104187,796.160217 378.071198,796.068237 377.756897,796.079529 
	C375.333984,799.117981 373.225342,802.145203 371.116699,805.172363 
	C371.116699,805.172363 371.083984,805.075500 370.771179,805.086182 
	C369.505585,805.700806 368.296600,806.103821 367.640381,806.940369 
	C362.153687,813.934753 356.718292,820.971436 351.406677,828.099060 
	C350.603394,829.177063 350.518646,830.790466 350.101501,832.156189 
	C350.101471,832.156189 350.069519,832.062683 349.756287,832.076538 
	C348.154114,833.075012 346.580872,833.838745 345.619049,835.077271 
	C331.707733,852.991394 317.866516,870.960083 304.064941,888.959045 
	C303.377747,889.855164 303.204590,891.145447 302.792053,892.252136 
	C301.100128,890.740295 300.697815,890.690918 300.520721,890.465088 
	C286.425079,872.481262 272.397095,854.444031 258.205444,836.536499 
	C256.401062,834.259583 253.748154,832.655212 251.488312,830.739319 
	C251.488312,830.739319 251.369507,830.597412 251.497131,830.195435 
	C251.510834,829.168152 251.594452,828.394775 251.253433,827.939758 
	C245.903732,820.802246 240.553787,813.662903 235.043335,806.650208 
	C234.297348,805.700806 232.683044,805.433716 231.470779,804.850708 
	C231.470779,804.850708 231.311707,804.672302 231.456512,804.238403 
	C230.339828,800.141113 229.034988,796.516418 224.462906,795.808716 
	C224.462906,795.808716 224.338196,795.638611 224.477966,795.214233 
	C224.052521,793.470337 223.734253,791.960022 222.884735,790.860046 
	C211.891327,776.625854 200.890182,762.396179 189.709839,748.309143 
	C187.706284,745.784729 184.883606,743.910461 182.439148,741.736023 
	C182.439133,741.736023 182.383728,741.591370 182.509460,741.196289 
	C182.517181,740.175171 182.598160,739.396423 182.252090,738.945251 
	C173.106308,727.022644 163.943649,715.112488 154.675507,703.285156 
	C154.027069,702.457642 152.541550,702.286072 151.445282,701.809448 
	C151.445267,701.809509 151.323120,701.646362 151.462921,701.233398 
	C150.962646,699.358398 150.578369,697.702820 149.641617,696.465454 
	C142.764893,687.382263 135.818512,678.350952 128.816513,669.363647 
	C114.817017,651.394836 100.804688,633.435669 86.677200,615.567749 
	C85.394638,613.945618 83.239960,613.013000 81.490273,611.760193 
	C81.490265,611.760193 81.360481,611.611084 81.491989,611.196655 
	C81.132370,609.427734 80.941559,607.841370 80.103073,606.754883 
	C72.842705,597.346985 65.525139,587.981140 58.057613,578.737610 
	C56.980259,577.404053 55.015282,576.787598 53.461075,575.839294 
	C53.461071,575.839294 53.319370,575.662598 53.465240,575.204834 
	C53.611111,573.646118 53.611111,572.545166 53.611111,570.999756 
	C55.449509,570.999756 57.084381,570.999695 58.719254,570.999756 
	C219.939301,571.002258 381.159332,571.004822 542.379395,571.007507 
	C543.545227,571.007568 544.929077,570.613831 545.825317,571.106201 
	C547.133728,571.825012 548.091919,573.181274 549.199402,574.265808 
	C549.199402,574.265808 549.161255,574.127991 548.938232,574.230713 
	C548.516052,574.676208 548.316833,575.019104 548.117615,575.361938 
z" data-index="1" style="opacity: 1;"></path>
<path fill="#06325F" opacity="1.000000" stroke="none" d="
M1547.565674,429.537659 
	C1549.625244,424.050781 1550.134521,417.093414 1553.805420,414.317963 
	C1557.230591,411.728485 1564.015259,413.505402 1569.321411,413.495453 
	C1588.317505,413.459778 1607.313477,413.481415 1626.309570,413.481415 
	C1628.116089,413.481415 1629.922607,413.481445 1632.036377,413.481445 
	C1632.036377,498.125305 1632.036377,582.350037 1632.036377,666.871887 
	C1614.956909,666.871887 1597.885376,666.871887 1579.812134,666.871887 
	C1580.349854,599.533020 1580.886597,532.314575 1581.423340,465.098785 
	C1577.491699,479.172394 1574.106201,493.527466 1569.474121,507.468323 
	C1553.083740,556.797485 1536.302612,605.997070 1519.585693,655.217224 
	C1515.509644,667.218689 1515.362427,667.168701 1502.746582,667.168701 
	C1494.081665,667.168701 1485.409180,666.956116 1476.755493,667.267273 
	C1472.992065,667.402466 1471.271851,666.307983 1470.009155,662.660828 
	C1447.840698,598.632935 1422.902710,535.527527 1405.988037,469.754517 
	C1405.879883,469.333801 1405.588867,468.960022 1405.382324,468.562439 
	C1405.382324,534.622314 1405.382324,600.594971 1405.382324,666.868774 
	C1388.966309,666.868774 1372.054443,666.868774 1354.845215,666.868774 
	C1354.845215,582.616028 1354.845215,498.387024 1354.845215,413.781403 
	C1356.335938,413.678986 1357.773071,413.495270 1359.210449,413.494171 
	C1382.538940,413.476257 1405.867310,413.495178 1429.195801,413.462036 
	C1431.757568,413.458374 1433.782104,413.343933 1434.921021,416.633423 
	C1448.668945,456.339539 1463.194580,495.788239 1476.233032,535.723450 
	C1483.337158,557.481995 1487.996338,580.038757 1493.943237,602.948120 
	C1495.146240,597.874390 1496.379883,593.224487 1497.344116,588.519348 
	C1507.090698,540.959106 1524.817139,495.883911 1540.386597,450.137360 
	C1542.687500,443.376923 1545.057251,436.640015 1547.565674,429.537659 
z" data-index="2" style="opacity: 1;"></path>
<path fill="#06325F" opacity="1.000000" stroke="none" d="
M1031.555420,591.417847 
	C1045.132446,616.592163 1058.504395,641.457275 1072.176147,666.879822 
	C1070.539062,666.996643 1069.327271,667.157349 1068.115112,667.158569 
	C1051.782715,667.175171 1035.449585,667.085205 1019.118774,667.244263 
	C1016.021545,667.274353 1014.424561,666.278076 1012.990845,663.538391 
	C998.580017,636.001099 983.970215,608.567993 969.575745,581.022217 
	C967.980896,577.970337 966.219299,576.845886 962.749146,576.911316 
	C950.454346,577.143433 938.152405,577.001831 925.402710,577.001831 
	C925.402710,607.135620 925.402710,636.883240 925.402710,666.898438 
	C907.881042,666.898438 890.813232,666.898438 873.489929,666.898438 
	C873.489929,582.585571 873.489929,498.478546 873.489929,414.020905 
	C874.470581,413.852753 875.553894,413.500977 876.635620,413.505585 
	C912.128479,413.656677 947.635925,413.284058 983.108948,414.216095 
	C1007.209229,414.849335 1028.732422,423.123108 1045.232056,441.663971 
	C1058.625732,456.714508 1063.673584,474.891724 1063.951660,494.589294 
	C1064.275269,517.500488 1058.193604,538.199402 1040.789795,554.077637 
	C1034.487671,559.827454 1026.882690,564.149414 1019.660583,569.273010 
	C1023.350281,576.165100 1027.350220,583.636841 1031.555420,591.417847 
M992.712830,529.304260 
	C996.508545,526.158325 1001.135864,523.622375 1003.964050,519.766785 
	C1021.545410,495.798553 1007.795349,461.971710 978.207336,458.276794 
	C961.149658,456.146667 943.679077,457.320648 926.393921,457.034912 
	C926.143372,457.030792 925.886963,457.382660 925.645996,457.559082 
	C925.645996,483.312164 925.645996,509.038879 925.645996,534.932312 
	C940.112915,534.932312 954.293518,535.524170 968.391602,534.701782 
	C976.357117,534.237244 984.187012,531.447205 992.712830,529.304260 
z" data-index="3" style="opacity: 1;"></path>
<path fill="#06325F" opacity="1.000000" stroke="none" d="
M1870.811401,637.810791 
	C1845.179565,662.966431 1814.188232,672.364197 1779.383911,670.394470 
	C1749.861938,668.723694 1724.045410,658.040649 1703.313110,636.520264 
	C1685.286133,617.807922 1675.289551,595.011780 1671.387207,569.609192 
	C1667.217651,542.466797 1667.791748,515.351746 1676.892090,489.194000 
	C1692.952759,443.029968 1725.239136,416.212952 1774.194946,410.902252 
	C1808.309326,407.201508 1839.423706,415.087769 1865.593628,438.154816 
	C1887.187256,457.188019 1899.164185,481.748505 1903.672852,509.850067 
	C1908.185791,537.978333 1907.310547,565.941345 1898.078491,593.217651 
	C1892.399048,609.998230 1883.520630,624.884460 1870.811401,637.810791 
M1819.312256,464.089020 
	C1787.368652,447.416412 1743.825195,456.483185 1728.882080,498.261932 
	C1719.734497,523.837341 1719.418457,549.981628 1726.610229,575.888550 
	C1734.811157,605.430176 1756.242188,623.571045 1786.160522,624.436768 
	C1813.500854,625.228027 1836.765259,609.964355 1846.112671,584.309692 
	C1855.731567,557.909424 1855.914429,531.085876 1848.726929,504.299103 
	C1844.261719,487.658142 1835.345947,473.545105 1819.312256,464.089020 
z" data-index="4" style="opacity: 1;"></path>
<path fill="#06325E" opacity="1.000000" stroke="none" d="
M1153.346191,447.000122 
	C1153.346191,488.656311 1153.361938,529.812500 1153.337402,570.968628 
	C1153.329224,584.669434 1156.153442,597.421753 1165.575684,607.963501 
	C1180.250488,624.381592 1205.321289,629.624512 1228.084961,621.111328 
	C1246.936279,614.061218 1258.794556,596.098206 1258.898804,573.556213 
	C1259.068970,536.733032 1258.947388,499.908539 1258.948364,463.084625 
	C1258.948853,446.765869 1258.948486,430.447113 1258.948486,413.805756 
	C1276.262939,413.805756 1293.322510,413.805756 1310.885742,413.805756 
	C1310.885742,415.594452 1310.885620,417.207428 1310.885620,418.820404 
	C1310.885376,471.140381 1310.875488,523.460388 1310.890625,575.780334 
	C1310.895264,591.981506 1308.290161,607.600891 1300.431396,621.989441 
	C1289.028564,642.866394 1271.545166,656.779785 1249.195312,663.934509 
	C1217.581299,674.055237 1185.681641,674.123352 1155.044678,660.646912 
	C1122.031250,646.125061 1103.109253,620.247070 1102.153442,583.816101 
	C1101.065674,542.354553 1101.813232,500.844757 1101.771606,459.355927 
	C1101.757446,445.359497 1101.763672,431.363068 1101.780518,417.366638 
	C1101.781860,416.229309 1101.937988,415.092163 1102.039307,413.725708 
	C1118.992554,413.725708 1135.767456,413.725708 1153.346191,413.725708 
	C1153.346191,424.693176 1153.346191,435.596649 1153.346191,447.000122 
z" data-index="5" style="opacity: 1;"></path>
<path fill="#06325F" opacity="1.000000" stroke="none" d="
M665.001709,667.168701 
	C659.514404,667.168701 654.526611,667.168701 649.171387,667.168701 
	C649.171387,582.630249 649.171387,498.279358 649.171387,413.746948 
	C650.106323,413.650757 650.915222,413.491394 651.723328,413.495331 
	C687.380005,413.668243 723.065063,413.045624 758.684143,414.298553 
	C786.933472,415.292236 810.543518,427.079041 826.314697,451.510803 
	C838.963440,471.105438 841.254089,492.943604 837.605591,515.416870 
	C831.329956,554.071838 802.911438,577.550781 766.038086,581.720093 
	C746.432312,583.936951 726.472351,583.023621 706.672058,583.513123 
	C705.010498,583.554199 703.347168,583.518555 701.025757,583.518555 
	C701.025757,611.357483 701.025757,639.037842 701.025757,667.168701 
	C688.748718,667.168701 677.124939,667.168701 665.001709,667.168701 
M740.458862,456.859406 
	C727.371704,456.859406 714.284546,456.859406 701.073120,456.859406 
	C701.073120,485.121124 701.073120,512.838806 701.073120,540.124512 
	C717.861084,540.124512 734.499939,541.021667 750.994446,539.863281 
	C766.394287,538.781677 778.059021,530.334106 783.114685,515.323242 
	C788.482666,499.385376 787.757874,483.660736 776.135803,470.277771 
	C767.089539,459.860931 754.688354,457.003693 740.458862,456.859406 
z" data-index="6" style="opacity: 1;"></path>
<path fill="#0288FF" opacity="1.000000" stroke="none" d="
M269.390198,194.999847 
	C269.389893,172.196030 269.389893,149.892227 269.389893,127.059311 
	C271.583496,126.946190 273.336792,126.778862 275.090240,126.777275 
	C292.255493,126.761749 309.423920,126.958214 326.583893,126.658669 
	C331.340485,126.575638 332.325806,128.083221 332.322021,132.558228 
	C332.221924,251.048355 332.261841,369.538605 332.277588,488.028809 
	C332.278809,497.144897 332.277771,506.260956 332.277771,516.096863 
	C321.066406,516.096863 310.454132,516.102539 299.841858,516.095032 
	C291.342590,516.088989 282.830139,515.778564 274.349182,516.165100 
	C269.615356,516.380920 269.355835,514.108521 269.363037,510.471375 
	C269.437744,472.808044 269.404205,435.144531 269.401855,397.481049 
	C269.397705,330.153992 269.394287,262.826904 269.390198,194.999847 
z" data-index="7"></path>
<path fill="#181B22" opacity="1.000000" stroke="none" d="
M549.527222,574.178528 
	C548.091919,573.181274 547.133728,571.825012 545.825317,571.106201 
	C544.929077,570.613831 543.545227,571.007568 542.379395,571.007507 
	C381.159332,571.004822 219.939301,571.002258 58.719254,570.999756 
	C57.084381,570.999695 55.449509,570.999756 53.611111,570.999756 
	C53.611111,572.545166 53.611111,573.646118 53.409325,575.106445 
	C51.883442,573.805725 50.559345,572.145752 48.708942,569.825928 
	C217.046951,569.825928 384.532196,569.825928 552.889954,569.825928 
	C551.749634,571.428589 550.802368,572.759949 549.527222,574.178528 
z" data-index="8"></path>
<path fill="#181B22" opacity="1.000000" stroke="none" d="
M251.644882,831.019775 
	C253.748154,832.655212 256.401062,834.259583 258.205444,836.536499 
	C272.397095,854.444031 286.425079,872.481262 300.520721,890.465088 
	C300.697815,890.690918 301.100128,890.740295 302.792053,892.252136 
	C303.204590,891.145447 303.377747,889.855164 304.064941,888.959045 
	C317.866516,870.960083 331.707733,852.991394 345.619049,835.077271 
	C346.580872,833.838745 348.154114,833.075012 349.802582,832.093811 
	C341.733673,843.194214 333.350800,854.326233 324.863129,865.377808 
	C317.287506,875.241882 309.596161,885.017029 301.455322,895.474426 
	C284.654694,873.760803 268.228058,852.530518 251.644882,831.019775 
z" data-index="9"></path>
<path fill="#181B22" opacity="1.000000" stroke="none" d="
M81.648766,612.037476 
	C83.239960,613.013000 85.394638,613.945618 86.677200,615.567749 
	C100.804688,633.435669 114.817017,651.394836 128.816513,669.363647 
	C135.818512,678.350952 142.764893,687.382263 149.641617,696.465454 
	C150.578369,697.702820 150.962646,699.358398 151.399506,701.153625 
	C141.275406,688.819946 131.319397,676.180359 121.442307,663.479370 
	C108.198631,646.449341 95.016045,629.371887 81.648766,612.037476 
z" data-index="10"></path>
<path fill="#181B22" opacity="1.000000" stroke="none" d="
M495.050232,645.329224 
	C495.412567,643.621765 495.590027,641.397034 496.733124,639.918945 
	C502.396973,632.594910 508.425385,625.553528 514.119263,618.251831 
	C522.755188,607.177429 531.196899,595.951721 539.795959,584.848267 
	C540.669312,583.720459 542.054871,582.989319 543.542297,582.033203 
	C536.569580,591.630554 529.310059,601.309570 521.931396,610.896851 
	C513.110962,622.357544 504.188690,633.739868 495.050232,645.329224 
z" data-index="11"></path>
<path fill="#181B22" opacity="1.000000" stroke="none" d="
M443.430145,712.035950 
	C443.781433,710.385498 444.041595,708.284119 445.156158,706.844177 
	C459.880341,687.821289 474.711517,668.881104 489.562439,649.956726 
	C490.837891,648.331421 492.443542,646.965210 494.234680,645.612061 
	C483.406525,660.331665 472.252777,674.928162 461.066895,689.499878 
	C455.319611,696.986816 449.514923,704.429688 443.430145,712.035950 
z" data-index="12"></path>
<path fill="#181B22" opacity="1.000000" stroke="none" d="
M395.196350,774.277161 
	C395.125763,773.311584 394.916779,771.875610 395.532593,771.070801 
	C405.753204,757.714294 416.101501,744.455627 426.365509,731.132141 
	C430.080933,726.309204 433.545837,721.290466 437.340729,716.533142 
	C438.726562,714.795837 440.737793,713.557434 442.824036,712.104736 
	C435.868011,721.782471 428.618347,731.498413 421.217743,741.097961 
	C412.695374,752.152466 404.039581,763.104126 395.196350,774.277161 
z" data-index="13"></path>
<path fill="#181B22" opacity="1.000000" stroke="none" d="
M182.567902,742.032227 
	C184.883606,743.910461 187.706284,745.784729 189.709839,748.309143 
	C200.890182,762.396179 211.891327,776.625854 222.884735,790.860046 
	C223.734253,791.960022 224.052521,793.470337 224.423782,795.123779 
	C210.385452,777.747864 196.541046,760.038147 182.567902,742.032227 
z" data-index="14"></path>
<path fill="#181B22" opacity="1.000000" stroke="none" d="
M151.559814,702.107788 
	C152.541550,702.286072 154.027069,702.457642 154.675507,703.285156 
	C163.943649,715.112488 173.106308,727.022644 182.252090,738.945251 
	C182.598160,739.396423 182.517181,740.175171 182.451508,741.144897 
	C172.070007,728.461121 161.872177,715.433655 151.559814,702.107788 
z" data-index="15"></path>
<path fill="#181B22" opacity="1.000000" stroke="none" d="
M53.594406,576.125977 
	C55.015282,576.787598 56.980259,577.404053 58.057613,578.737610 
	C65.525139,587.981140 72.842705,597.346985 80.103073,606.754883 
	C80.941559,607.841370 81.132370,609.427734 81.428238,611.121216 
	C72.064575,599.777588 62.896152,588.095093 53.594406,576.125977 
z" data-index="16"></path>
<path fill="#181B22" opacity="1.000000" stroke="none" d="
M350.405457,832.009338 
	C350.518646,830.790466 350.603394,829.177063 351.406677,828.099060 
	C356.718292,820.971436 362.153687,813.934753 367.640381,806.940369 
	C368.296600,806.103821 369.505585,805.700806 370.818970,805.104248 
	C364.356201,814.028625 357.532806,822.945557 350.405457,832.009338 
z" data-index="17"></path>
<path fill="#181B22" opacity="1.000000" stroke="none" d="
M231.615036,805.130432 
	C232.683044,805.433716 234.297348,805.700806 235.043335,806.650208 
	C240.553787,813.662903 245.903732,820.802246 251.253433,827.939758 
	C251.594452,828.394775 251.510834,829.168152 251.431824,830.129822 
	C244.745697,822.114197 238.252502,813.762207 231.615036,805.130432 
z" data-index="18"></path>
<path fill="#181B22" opacity="1.000000" stroke="none" d="
M378.403625,796.004150 
	C378.083954,795.667358 377.844330,795.003540 378.075684,794.706848 
	C383.326691,787.971130 388.629242,781.275757 394.228668,774.762085 
	C389.257812,781.916992 383.980438,788.882568 378.403625,796.004150 
z" data-index="19"></path>
<path fill="#181B22" opacity="1.000000" stroke="none" d="
M224.601929,796.093506 
	C229.034988,796.516418 230.339828,800.141113 231.398575,804.133789 
	C229.044205,801.768188 226.892578,799.073242 224.601929,796.093506 
z" data-index="20"></path>
<path fill="#181B22" opacity="1.000000" stroke="none" d="
M371.420898,805.023438 
	C373.225342,802.145203 375.333984,799.117981 377.803589,796.093994 
	C376.018066,799.022949 373.871582,801.948669 371.420898,805.023438 
z" data-index="21"></path>
<path fill="#181B22" opacity="1.000000" stroke="none" d="
M544.384888,581.120300 
	C544.864929,579.887634 545.645203,578.501770 546.810181,577.120117 
	C546.358276,578.405273 545.521606,579.686218 544.384888,581.120300 
z" data-index="22"></path>
<path fill="#181B22" opacity="1.000000" stroke="none" d="
M547.374573,577.103271 
	C547.245789,576.894104 547.378967,576.584778 547.728516,576.136902 
	C547.842041,576.333252 547.739319,576.668152 547.374573,577.103271 
z" data-index="23"></path>
<path fill="#181B22" opacity="1.000000" stroke="none" d="
M548.401978,575.258057 
	C548.316833,575.019104 548.516052,574.676208 549.008484,574.243896 
	C549.096558,574.487671 548.891418,574.820862 548.401978,575.258057 
z" data-index="24"></path>

<path fill="#FEFEFF" opacity="1.000000" stroke="none" d="
M1819.631592,464.274780 
	C1835.345947,473.545105 1844.261719,487.658142 1848.726929,504.299103 
	C1855.914429,531.085876 1855.731567,557.909424 1846.112671,584.309692 
	C1836.765259,609.964355 1813.500854,625.228027 1786.160522,624.436768 
	C1756.242188,623.571045 1734.811157,605.430176 1726.610229,575.888550 
	C1719.418457,549.981628 1719.734497,523.837341 1728.882080,498.261932 
	C1743.825195,456.483185 1787.368652,447.416412 1819.631592,464.274780 
z" data-index="26" style="opacity: 1; visibility: hidden;"></path>

</svg>