<svg version="1.1" id="Layer_1" xmlns="http://www.w3.org/2000/svg" xmlns:xlink="http://www.w3.org/1999/xlink" x="0px" y="0px"
	 width="100%" viewBox="0 0 500 500" enable-background="new 0 0 500 500" xml:space="preserve">
<path fill="#000000" opacity="1.000000" stroke="none" 
	d="
M324.000000,501.000000 
	C216.000031,501.000000 108.500053,501.000000 1.000058,501.000000 
	C1.000038,334.333405 1.000038,167.666794 1.000019,1.000147 
	C167.666565,1.000098 334.333130,1.000098 500.999756,1.000049 
	C500.999847,167.666519 500.999847,334.333038 500.999939,500.999786 
	C442.166656,501.000000 383.333344,501.000000 324.000000,501.000000 
M145.099197,263.776245 
	C145.687729,264.217072 146.276245,264.657867 146.839432,265.840454 
	C152.529694,273.808167 157.976349,281.964478 163.965302,289.700989 
	C173.821396,302.433075 184.164658,314.787567 194.049225,327.498230 
	C203.743073,339.963654 213.053024,352.726868 222.659760,365.261017 
	C229.857742,374.652405 237.204727,383.931549 244.606277,393.163757 
	C246.612289,395.665894 249.057205,397.816162 251.227051,400.052063 
	C253.714844,397.126190 255.483902,395.218567 257.060364,393.163177 
	C266.396790,380.990570 275.706604,368.797424 284.988770,356.583282 
	C290.902008,348.802246 296.683838,340.920593 302.649536,333.180328 
	C308.419006,325.694611 314.384247,318.360077 320.196259,310.906708 
	C324.620667,305.232819 328.961456,299.493195 333.300995,293.753754 
	C340.539307,284.180542 347.746887,274.584076 355.404388,264.587555 
	C355.582428,264.032257 355.760498,263.476929 355.531738,262.160950 
	C320.082214,262.104767 284.632721,262.028259 249.183151,261.998199 
	C215.728622,261.969849 182.274017,261.977081 148.819595,262.040344 
	C147.543716,262.042755 146.269226,262.794281 145.099197,263.776245 
M236.082428,77.484756 
	C236.102997,96.992424 236.123566,116.500084 235.996704,136.493652 
	C236.045990,136.655563 236.095276,136.817490 236.008957,137.913742 
	C236.005432,170.412018 235.990555,202.910309 236.034164,235.408524 
	C236.036209,236.927124 236.559967,238.445038 237.277603,240.742172 
	C246.503632,240.742172 255.729675,240.742172 265.054718,240.742172 
	C265.054718,186.951614 265.055359,133.564056 265.048462,80.176491 
	C265.048340,79.353249 265.194275,78.387222 264.819214,77.757545 
	C264.573395,77.344841 263.510712,77.418663 261.915009,77.098450 
	C253.984985,77.155632 246.054962,77.212822 237.511322,77.108086 
	C237.301590,77.135651 237.091843,77.163208 236.082428,77.484756 
z"/>
<path fill="#14243A" opacity="1.000000" stroke="none" 
	d="
M354.967377,264.997375 
	C347.746887,274.584076 340.539307,284.180542 333.300995,293.753754 
	C328.961456,299.493195 324.620667,305.232819 320.196259,310.906708 
	C314.384247,318.360077 308.419006,325.694611 302.649536,333.180328 
	C296.683838,340.920593 290.902008,348.802246 284.988770,356.583282 
	C275.706604,368.797424 266.396790,380.990570 257.060364,393.163177 
	C255.483902,395.218567 253.714844,397.126190 251.227051,400.052063 
	C249.057205,397.816162 246.612289,395.665894 244.606277,393.163757 
	C237.204727,383.931549 229.857742,374.652405 222.659760,365.261017 
	C213.053024,352.726868 203.743073,339.963654 194.049225,327.498230 
	C184.164658,314.787567 173.821396,302.433075 163.965302,289.700989 
	C157.976349,281.964478 152.529694,273.808167 147.050110,265.251648 
	C147.838440,264.152283 148.416061,263.641724 149.392166,263.062134 
	C150.864288,263.041290 151.937912,263.089569 153.369598,263.340088 
	C161.480469,263.409058 169.233276,263.275787 177.448425,263.066071 
	C182.947235,263.040802 187.983673,263.091949 193.377228,263.345398 
	C195.714310,263.699646 197.694168,263.982391 199.674271,263.984070 
	C232.323196,264.011871 264.972168,264.026703 297.621063,263.995605 
	C314.942963,263.979095 332.264801,263.869232 349.754883,263.447266 
	C351.208466,263.108368 352.493835,263.123779 353.933228,263.475891 
	C354.380646,264.207520 354.674011,264.602448 354.967377,264.997375 
z"/>
<path fill="#088AFB" opacity="1.000000" stroke="none" 
	d="
M238.124939,77.270004 
	C246.054962,77.212822 253.984985,77.155632 262.478241,77.624908 
	C263.099823,117.770866 263.160797,157.390366 263.214966,197.009857 
	C263.232483,209.828537 263.131592,222.648605 263.304535,235.465073 
	C263.353119,239.066025 262.378601,240.618973 258.531708,240.372375 
	C253.888977,240.074768 249.213470,240.285538 244.552155,240.281525 
	C237.734238,240.275650 237.704681,240.277634 237.703369,233.552139 
	C237.693558,183.276154 237.691864,133.000183 237.713348,82.724213 
	C237.714111,80.906082 237.981705,79.088074 238.124939,77.270004 
z"/>
<path fill="#C4E2FC" opacity="1.000000" stroke="none" 
	d="
M237.818130,77.189041 
	C237.981705,79.088074 237.714111,80.906082 237.713348,82.724213 
	C237.691864,133.000183 237.693558,183.276154 237.703369,233.552139 
	C237.704681,240.277634 237.734238,240.275650 244.552155,240.281525 
	C249.213470,240.285538 253.888977,240.074768 258.531708,240.372375 
	C262.378601,240.618973 263.353119,239.066025 263.304535,235.465073 
	C263.131592,222.648605 263.232483,209.828537 263.214966,197.009857 
	C263.160797,157.390366 263.099823,117.770866 262.927673,77.712982 
	C263.510712,77.418663 264.573395,77.344841 264.819214,77.757545 
	C265.194275,78.387222 265.048340,79.353249 265.048462,80.176491 
	C265.055359,133.564056 265.054718,186.951614 265.054718,240.742172 
	C255.729675,240.742172 246.503632,240.742172 237.057281,239.889343 
	C236.835052,207.136261 236.846207,175.236008 236.801804,143.335815 
	C236.798859,141.216705 236.373459,139.098206 236.144562,136.979416 
	C236.095276,136.817490 236.045990,136.655563 236.264038,135.887848 
	C236.630630,133.303879 236.811813,131.325867 236.816345,129.347473 
	C236.856155,111.961952 236.864471,94.576347 236.882111,77.190773 
	C237.091843,77.163208 237.301590,77.135651 237.818130,77.189041 
z"/>
<path fill="#C3CBD3" opacity="1.000000" stroke="none" 
	d="
M193.020126,263.143127 
	C187.983673,263.091949 182.947235,263.040802 176.983871,263.002930 
	C168.375153,263.056732 160.693359,263.097290 153.011551,263.137848 
	C151.937912,263.089569 150.864288,263.041290 148.993164,263.005127 
	C147.128479,263.077057 146.061279,263.136902 144.994095,263.196747 
	C146.269226,262.794281 147.543716,262.042755 148.819595,262.040344 
	C182.274017,261.977081 215.728622,261.969849 249.183151,261.998199 
	C284.632721,262.028259 320.082214,262.104767 355.463715,262.566650 
	C354.856842,263.027954 354.318024,263.083588 353.779175,263.139191 
	C352.493835,263.123779 351.208466,263.108368 349.449219,263.097412 
	C338.812469,263.065125 328.649567,262.990021 318.486725,262.998383 
	C276.664520,263.032837 234.842331,263.092651 193.020126,263.143127 
z"/>
<path fill="#FDFEFF" opacity="1.000000" stroke="none" 
	d="
M236.076752,137.446579 
	C236.373459,139.098206 236.798859,141.216705 236.801804,143.335815 
	C236.846207,175.236008 236.835052,207.136261 236.838867,239.499893 
	C236.559967,238.445038 236.036209,236.927124 236.034164,235.408524 
	C235.990555,202.910309 236.005432,170.412018 236.076752,137.446579 
z"/>
<path fill="#FDFEFF" opacity="1.000000" stroke="none" 
	d="
M236.482269,77.337769 
	C236.864471,94.576347 236.856155,111.961952 236.816345,129.347473 
	C236.811813,131.325867 236.630630,133.303879 236.337738,135.644897 
	C236.123566,116.500084 236.102997,96.992424 236.482269,77.337769 
z"/>
<path fill="#0E1824" opacity="1.000000" stroke="none" 
	d="
M145.046646,263.486511 
	C146.061279,263.136902 147.128479,263.077057 148.594666,263.074219 
	C148.416061,263.641724 147.838440,264.152283 147.062790,264.880737 
	C146.276245,264.657867 145.687729,264.217072 145.046646,263.486511 
z"/>
<path fill="#0E1824" opacity="1.000000" stroke="none" 
	d="
M353.933228,263.475891 
	C354.318024,263.083588 354.856842,263.027954 355.667114,262.946960 
	C355.760498,263.476929 355.582428,264.032257 355.185883,264.792480 
	C354.674011,264.602448 354.380646,264.207520 353.933228,263.475891 
z"/>
<path fill="#0E1824" opacity="1.000000" stroke="none" 
	d="
M193.377228,263.345398 
	C234.842331,263.092651 276.664520,263.032837 318.486725,262.998383 
	C328.649567,262.990021 338.812469,263.065125 349.281006,263.451721 
	C332.264801,263.869232 314.942963,263.979095 297.621063,263.995605 
	C264.972168,264.026703 232.323196,264.011871 199.674271,263.984070 
	C197.694168,263.982391 195.714310,263.699646 193.377228,263.345398 
z"/>
<path fill="#0E1824" opacity="1.000000" stroke="none" 
	d="
M153.369598,263.340088 
	C160.693359,263.097290 168.375153,263.056732 176.521515,263.079346 
	C169.233276,263.275787 161.480469,263.409058 153.369598,263.340088 
z"/>
</svg>